# xmcd
#
# Track frame offsets:
#	150
#	12634
#	30157
#	41860
#	58795
#	77310
#	91832
#	105785
#	124340
#	141277
#
# Disc length: 2003 seconds
#
# Revision: 0
# Processed by: cddbd v1.4PL0 Copyright (c) Steve Scherf et al.
# Submitted via: dBpowerAMP V4.0
#
DISCID=7507d10a
DTITLE=Ed Burleson - Comin' Around
DYEAR=1997
DGENRE=Country
TTITLE0=No One Has To Tell You
TTITLE1=Wide Open Spaces
TTITLE2=Might Seem Like A Loser
TTITLE3=No Tears
TTITLE4=It All Started And Ended With You
TTITLE5=Goin' Home To Texas
TTITLE6=No Closin' Time
TTITLE7=My Perfect World
TTITLE8=Starin' Out The Window
TTITLE9=Big Town, Small World Blues
EXTD=
EXTT0=
EXTT1=
EXTT2=
EXTT3=
EXTT4=
EXTT5=
EXTT6=
EXTT7=
EXTT8=
EXTT9=
PLAYORDER=
